<svg width="60" height="60" viewBox="0 0 60 60" fill="none" xmlns="http://www.w3.org/2000/svg">
<path d="M60 13.6336V53.4152H6.46523V43.6769L26.475 30.0715L50.6508 13.6336H60Z" fill="#00AA8E"/>
<path d="M60 13.6336V53.4152H26.475V30.0715L50.6508 13.6336H60Z" fill="#00767A"/>
<path d="M52.9488 13.5867L50.6051 18.8602L52.9488 24.1336V46.3652H0V24.1336L2.34375 18.8602L0 13.5867V6.58476H52.9488V13.5867Z" fill="#00DC7B"/>
<path d="M52.9488 13.5867L50.6051 18.8602L52.9488 24.1336V46.3652H26.475V6.58476H52.9488V13.5867Z" fill="#00AA8E"/>
<path d="M0 13.5867H52.9488V24.1336H0V13.5867Z" fill="#186A81"/>
<path d="M30.8827 36.4848L30.8968 32.9692L45.6725 33.0283L45.6584 36.5439L30.8827 36.4848Z" fill="#EAF4F4"/>
<path d="M26.475 13.5867H52.9488V24.1336H26.475V13.5867Z" fill="#00465F"/>
<path d="M16.2381 32.9674H19.7537V36.483H16.2381V32.9674Z" fill="#EAF4F4"/>
<path d="M9.20683 32.9674H12.7225V36.483H9.20683V32.9674Z" fill="#EAF4F4"/>
</svg>
