<svg width="60" height="60" viewBox="0 0 60 60" fill="none" xmlns="http://www.w3.org/2000/svg">
<path d="M5.55234 0H57.7734V60H5.55234V0Z" fill="#EAF4F4"/>
<path d="M31.6629 0H57.7734V60H31.6629V0Z" fill="#CAE8EA"/>
<path d="M35.2974 13.6882H46.6978V17.197H35.2974V13.6882Z" fill="#A7D2DB"/>
<path d="M35.2974 28.2554H46.6978V31.7643H35.2974V28.2554Z" fill="#A7D2DB"/>
<path d="M35.2974 43.9722H46.6978V47.481H35.2974V43.9722Z" fill="#A7D2DB"/>
<path d="M29.9087 12.1657L27.4228 9.68472L21.7371 15.3594L19.1055 12.7329L16.6195 15.214L21.7371 20.3215L29.9087 12.1657Z" fill="#00DC7B"/>
<path d="M21.7371 30.1422L19.1055 27.5156L16.6195 29.9967L21.7371 35.1042L29.9087 26.9484L27.4228 24.4675L21.7371 30.1422Z" fill="#00DC7B"/>
<path d="M21.7371 44.9248L19.1054 42.2985L16.6195 44.7794L21.7371 49.8868L29.9087 41.7312L27.4228 39.2502L21.7371 44.9248Z" fill="#00DC7B"/>
<path d="M2.22656 38.4002H11.9256V41.9091H2.22656V38.4002Z" fill="#FFE26F"/>
<path d="M2.22656 48.555H11.9256V52.0638H2.22656V48.555Z" fill="#FFE26F"/>
<path d="M2.22656 18.0907H11.9256V21.5995H2.22656V18.0907Z" fill="#FFE26F"/>
<path d="M2.22656 28.2455H11.9256V31.7543H2.22656V28.2455Z" fill="#FFE26F"/>
<path d="M2.22656 7.93594H11.9256V11.4448H2.22656V7.93594Z" fill="#FFE26F"/>
</svg>
