<svg width="64" height="64" viewBox="0 0 64 64" fill="none" xmlns="http://www.w3.org/2000/svg">
<path d="M3.78813 32.5154H7.54388V10.544H19.4249V6.79449H3.78813V32.5154Z" fill="#2AD7F5"/>
<path d="M44.5043 6.79449V10.544H56.5106V32.5154H60.2663V6.79449H44.5043Z" fill="#3BA9FF"/>
<path d="M21.15 48.1956H42.988V51.9451H21.15V48.1956Z" fill="#2AD7F5"/>
<path d="M32.0689 48.1956H42.9879V51.9451H32.0689V48.1956Z" fill="#3BA9FF"/>
<path d="M64 57.844V64H46.6925V57.844C46.6925 53.072 50.575 49.1889 55.3463 49.1889C60.1175 49.189 64 53.072 64 57.844Z" fill="#186A81"/>
<path d="M64 57.844V64H55.3463V49.189C60.1175 49.189 64 53.072 64 57.844Z" fill="#00465F"/>
<path d="M55.3462 52.9395C59.5491 52.9395 62.9562 49.5621 62.9562 45.3959C62.9562 41.2296 59.5491 37.8522 55.3462 37.8522C51.1434 37.8522 47.7363 41.2296 47.7363 45.3959C47.7363 49.5621 51.1434 52.9395 55.3462 52.9395Z" fill="#FFE8C8"/>
<path d="M62.9563 45.3959C62.9563 49.5552 59.5425 52.9395 55.3463 52.9395V37.8521C59.5425 37.8521 62.9563 41.2365 62.9563 45.3959Z" fill="#FFC7A1"/>
<path d="M17.3075 57.844V64H0V57.844C0 53.072 3.8825 49.1889 8.65375 49.1889C13.425 49.189 17.3075 53.072 17.3075 57.844Z" fill="#00DC7B"/>
<path d="M17.3075 57.844V64H8.65375V49.189C13.425 49.189 17.3075 53.072 17.3075 57.844Z" fill="#00AA8E"/>
<path d="M8.65374 52.9395C12.8566 52.9395 16.2637 49.5621 16.2637 45.3959C16.2637 41.2296 12.8566 37.8522 8.65374 37.8522C4.45086 37.8522 1.04375 41.2296 1.04375 45.3959C1.04375 49.5621 4.45086 52.9395 8.65374 52.9395Z" fill="#FFE8C8"/>
<path d="M16.2637 45.3959C16.2637 49.5552 12.85 52.9395 8.65375 52.9395V37.8521C12.85 37.8521 16.2637 41.2365 16.2637 45.3959Z" fill="#FFC7A1"/>
<path d="M42.2889 23.3186V34.8704H21.8489V23.3186C21.8489 17.6815 26.4339 13.097 32.0689 13.097C37.704 13.097 42.2889 17.6815 42.2889 23.3186Z" fill="#FBD38D"/>
<path d="M42.2889 23.3186V34.8704H32.0689V13.097C37.704 13.097 42.2889 17.6815 42.2889 23.3186Z" fill="#F6AD55"/>
<path d="M40.5701 8.42387C40.5701 13.0684 36.7564 16.8477 32.0689 16.8477C27.3801 16.8477 23.5664 13.0684 23.5664 8.42387C23.5664 3.77938 27.3801 0 32.0689 0C36.7564 0 40.5701 3.77938 40.5701 8.42387Z" fill="#FFE8C8"/>
<path d="M30.1939 22.1085H33.9439V25.8591H30.1939V22.1085Z" fill="#F6AD55"/>
<path d="M32.0689 22.1085H33.9439V25.8591H32.0689V22.1085Z" fill="#FBD38D"/>
<path d="M40.5701 8.42387C40.5701 13.0684 36.7564 16.8477 32.0689 16.8477V0C36.7564 0 40.5701 3.77938 40.5701 8.42387Z" fill="#FFC7A1"/>
</svg>
