<svg width="64" height="64" viewBox="0 0 64 64" fill="none" xmlns="http://www.w3.org/2000/svg">
<path d="M64 25.6904V30.5285L32 54.3713L31.9862 54.3811L0 30.5285V25.6904L8.85625 18.8981H55.1437L64 25.6904Z" fill="#186A81"/>
<path d="M64 25.6904V30.5285L32 54.3713V18.8981H55.1437L64 25.6904Z" fill="#00465F"/>
<path d="M55.875 0V37.3524L32.015 53.0918L32 53.0817L8.125 37.3475V0L55.875 0Z" fill="#EAF4F4"/>
<path d="M55.875 0V37.3524L32.015 53.0918L32 53.0817V0L55.875 0Z" fill="#CAE8EA"/>
<path d="M64 34.2674V64H0V30.5285L31.9862 50.6424L32.015 50.661L64 34.2674Z" fill="#FFE26F"/>
<path d="M64 30.5285V64H31.9863V50.6424L32.015 50.661L64 30.5285Z" fill="#FFC271"/>
<path d="M32 40.2175C40.7385 40.2175 47.8225 33.1335 47.8225 24.395C47.8225 15.6565 40.7385 8.57249 32 8.57249C23.2615 8.57249 16.1775 15.6565 16.1775 24.395C16.1775 33.1335 23.2615 40.2175 32 40.2175Z" fill="#00DC7B"/>
<path d="M47.8225 24.395C47.8225 33.12 40.725 40.2175 32 40.2175V8.57249C40.725 8.57249 47.8225 15.67 47.8225 24.395Z" fill="#00AA8E"/>
<path d="M39.0875 21.6125L30.3712 30.3288L24.9125 24.87L27.5637 22.2188L30.3712 25.0263L32 23.3975L36.4362 18.9613L39.0875 21.6125Z" fill="white"/>
<path d="M39.0875 21.6125L32 28.7V23.3975L36.4362 18.9613L39.0875 21.6125Z" fill="#EAF4F4"/>
</svg>
